<svg width="162" height="36" viewBox="0 0 162 36" fill="none" xmlns="http://www.w3.org/2000/svg">
<mask id="mask0_502_2336" style="mask-type:luminance" maskUnits="userSpaceOnUse" x="0" y="0" width="32" height="36">
<path fill-rule="evenodd" clip-rule="evenodd" d="M0 0H31.3043V36H0V0Z" fill="white"/>
</mask>
<g mask="url(#mask0_502_2336)">
<path fill-rule="evenodd" clip-rule="evenodd" d="M15.2037 0.120161L0.448311 8.63923C0.170819 8.79915 -6.10352e-05 9.09557 -6.10352e-05 9.41591V26.4536C-6.10352e-05 26.7744 0.170819 27.0703 0.448311 27.2307L15.2037 35.7498C15.4812 35.9097 15.823 35.9097 16.1005 35.7498L21.9363 32.3805L26.6058 34.3927C26.9028 34.5208 27.2331 34.3021 27.2316 33.9792L27.2121 29.3346L30.8559 27.2307C31.1334 27.0703 31.3043 26.7744 31.3043 26.4536V9.41591C31.3043 9.09557 31.1334 8.79915 30.8559 8.63923L16.1005 0.120161C15.823 -0.040257 15.4812 -0.040257 15.2037 0.120161" fill="#111111"/>
</g>
<mask id="mask1_502_2336" style="mask-type:luminance" maskUnits="userSpaceOnUse" x="3" y="4" width="25" height="28">
<path fill-rule="evenodd" clip-rule="evenodd" d="M3.67554 10.9968V24.7796L15.6114 31.6706L27.5473 24.7796V10.9968L15.6114 4.10583L3.67554 10.9968Z" fill="white"/>
</mask>
<g mask="url(#mask1_502_2336)">
<path fill-rule="evenodd" clip-rule="evenodd" d="M3.67554 10.9968V24.7796L15.6114 31.6706L27.5473 24.7796V10.9968L15.6114 4.10583L3.67554 10.9968Z" fill="url(#paint0_linear_502_2336)"/>
</g>
<mask id="mask2_502_2336" style="mask-type:luminance" maskUnits="userSpaceOnUse" x="15" y="10" width="13" height="22">
<path fill-rule="evenodd" clip-rule="evenodd" d="M15.6115 17.9125V31.6706L27.5474 24.7796V10.9968L15.6115 17.9125Z" fill="white"/>
</mask>
<g mask="url(#mask2_502_2336)">
<path fill-rule="evenodd" clip-rule="evenodd" d="M15.6115 17.9125V31.6706L27.5474 24.7796V10.9968L15.6115 17.9125Z" fill="url(#paint1_linear_502_2336)"/>
</g>
<mask id="mask3_502_2336" style="mask-type:luminance" maskUnits="userSpaceOnUse" x="3" y="10" width="13" height="22">
<path fill-rule="evenodd" clip-rule="evenodd" d="M3.67554 10.9968V24.7796L15.6114 31.6706V17.9125L3.67554 10.9968Z" fill="white"/>
</mask>
<g mask="url(#mask3_502_2336)">
<path fill-rule="evenodd" clip-rule="evenodd" d="M3.67554 10.9968V24.7796L15.6114 31.6706V17.9125L3.67554 10.9968Z" fill="url(#paint2_linear_502_2336)"/>
</g>
<path fill-rule="evenodd" clip-rule="evenodd" d="M19.8344 24.4493C21.2963 24.565 22.7944 23.7039 24.3318 21.7958C24.4695 21.6244 24.6046 21.8043 24.6046 22.016C24.6046 22.2261 24.473 22.3976 24.3318 22.5576C22.7766 24.3225 21.2759 25.2269 19.8344 25.2115C19.6958 25.21 19.5616 25.2035 19.5616 24.9929C19.5616 24.7807 19.6983 24.4388 19.8344 24.4493" fill="#111111"/>
<path fill-rule="evenodd" clip-rule="evenodd" d="M21.0427 19.8229C21.0427 20.5504 20.5259 21.4453 19.8894 21.8209C19.2529 22.1966 18.7371 21.9119 18.7371 21.1829C18.7371 20.4555 19.2529 19.561 19.8894 19.1854C20.5259 18.8097 21.0427 19.0945 21.0427 19.8229" fill="#111111"/>
<path fill-rule="evenodd" clip-rule="evenodd" d="M20.7821 19.5371C20.7821 19.8178 20.5824 20.1642 20.3369 20.3088C20.0904 20.4534 19.8907 20.3436 19.8907 20.0623C19.8907 19.7811 20.0904 19.4352 20.3369 19.2906C20.5824 19.1445 20.7821 19.2558 20.7821 19.5371" fill="white"/>
<path fill-rule="evenodd" clip-rule="evenodd" d="M25.4301 17.2329C25.4301 17.9603 24.9143 18.8548 24.2768 19.2304C23.6403 19.6066 23.1245 19.3218 23.1245 18.5944C23.1245 17.8654 23.6403 16.9705 24.2768 16.5949C24.9143 16.2192 25.4301 16.5054 25.4301 17.2329" fill="#111111"/>
<path fill-rule="evenodd" clip-rule="evenodd" d="M25.1692 16.9468C25.1692 17.2276 24.971 17.5739 24.724 17.7185C24.4776 17.8646 24.2788 17.7543 24.2788 17.4735C24.2788 17.1908 24.4776 16.846 24.724 16.6999C24.971 16.5558 25.1692 16.6656 25.1692 16.9468" fill="white"/>
<path fill-rule="evenodd" clip-rule="evenodd" d="M19.2587 8.80507C18.9959 10.4721 17.4495 11.7531 15.5807 11.7531C13.7114 11.7531 12.165 10.4721 11.9022 8.80507C11.8391 9.05849 11.8053 9.32184 11.8053 9.59265C11.8053 11.528 13.4952 13.0972 15.5807 13.0972C17.6652 13.0972 19.3556 11.528 19.3556 9.59265C19.3556 9.32184 19.3213 9.05849 19.2587 8.80507" fill="#111111"/>
<path fill-rule="evenodd" clip-rule="evenodd" d="M156.841 27.6207L148.938 20.5744L154.298 15.602C155.027 14.9256 155.07 13.7863 154.393 13.0573L153.865 12.4889C153.188 11.7599 152.048 11.7174 151.318 12.3938L145.892 17.4273V6.99716C145.892 6.00249 145.086 5.19594 144.09 5.19594H143.314C142.319 5.19594 141.512 6.00249 141.512 6.99716V28.6789C141.512 29.6741 142.319 30.4801 143.314 30.4801H144.09C145.086 30.4801 145.892 29.6741 145.892 28.6789V23.725L153.925 30.8869C154.667 31.5498 155.807 31.4848 156.469 30.7423L156.986 30.1634C157.648 29.4214 157.583 28.2826 156.841 27.6207" fill="#111111"/>
<path fill-rule="evenodd" clip-rule="evenodd" d="M122.542 28.6848V20.849C122.542 16.9043 125.742 13.7067 129.688 13.7067H132.238C136.185 13.7067 139.385 16.9043 139.385 20.8485V28.6848C139.385 29.679 138.578 30.4861 137.583 30.4861H136.807C135.811 30.4861 135.005 29.679 135.005 28.6848V20.8485C135.005 19.322 133.766 18.0841 132.238 18.0841H129.688C128.161 18.0841 126.922 19.322 126.922 20.849V28.6848C126.922 29.679 126.116 30.4861 125.12 30.4861H124.344C123.348 30.4861 122.542 29.679 122.542 28.6848" fill="#111111"/>
<path fill-rule="evenodd" clip-rule="evenodd" d="M118.604 30.4859H117.828C116.833 30.4859 116.026 29.6793 116.026 28.6846V15.5277C116.026 14.533 116.833 13.727 117.828 13.727H118.604C119.6 13.727 120.407 14.533 120.407 15.5277V28.6846C120.407 29.6793 119.6 30.4859 118.604 30.4859" fill="#111111"/>
<path fill-rule="evenodd" clip-rule="evenodd" d="M118.603 12.4145H117.828C116.833 12.4145 116.026 11.608 116.026 10.6128V9.83879C116.026 8.84412 116.833 8.03757 117.828 8.03757H118.603C119.599 8.03757 120.406 8.84412 120.406 9.83879V10.6128C120.406 11.608 119.599 12.4145 118.603 12.4145" fill="#111111"/>
<path fill-rule="evenodd" clip-rule="evenodd" d="M112.531 30.4605V30.4605C108.584 30.4605 105.385 27.2628 105.385 23.3191V8.21283C105.385 7.32172 106.108 6.59973 106.999 6.59973H108.15C109.042 6.59973 109.765 7.32172 109.765 8.21283V23.3191C109.765 24.8451 111.003 26.083 112.531 26.083C113.422 26.083 114.146 26.805 114.146 27.6966V28.8469C114.146 29.738 113.422 30.4605 112.531 30.4605" fill="#111111"/>
<path fill-rule="evenodd" clip-rule="evenodd" d="M103.612 27.5899L95.7093 20.5437L101.069 15.5713C101.798 14.8948 101.841 13.7555 101.164 13.0265L100.636 12.4582C99.9587 11.7292 98.8188 11.6866 98.0888 12.3631L92.6634 17.3965V6.96643C92.6634 5.97176 91.8563 5.16521 90.8611 5.16521H90.0851C89.0898 5.16521 88.2833 5.97176 88.2833 6.96643V28.6482C88.2833 29.6433 89.0898 30.4494 90.0851 30.4494H90.8611C91.8563 30.4494 92.6634 29.6433 92.6634 28.6482V23.6943L100.696 30.8562C101.438 31.5191 102.578 31.4541 103.24 30.7116L103.757 30.1327C104.419 29.3907 104.354 28.2519 103.612 27.5899" fill="#111111"/>
<path fill-rule="evenodd" clip-rule="evenodd" d="M84.3382 30.4883H80.5208C76.5737 30.4883 73.3746 27.2907 73.3746 23.3465V20.8528C73.3746 16.9081 76.5737 13.7109 80.5203 13.7109H84.3382C85.3335 13.7109 86.141 14.5175 86.141 15.5116V16.2872C86.141 17.2818 85.3335 18.0889 84.3382 18.0889H80.5203C78.9928 18.0889 77.7548 19.3257 77.7548 20.8528V23.3465C77.7548 24.873 78.9928 26.1109 80.5208 26.1109H84.3382C85.3335 26.1109 86.141 26.9169 86.141 27.9121V28.6871C86.141 29.6823 85.3335 30.4883 84.3382 30.4883" fill="#111111"/>
<path fill-rule="evenodd" clip-rule="evenodd" d="M69.4399 30.4859H68.6639C67.6687 30.4859 66.8616 29.6793 66.8616 28.6846V15.5277C66.8616 14.533 67.6687 13.727 68.6639 13.727H69.4399C70.4352 13.727 71.2423 14.533 71.2423 15.5277V28.6846C71.2423 29.6793 70.4352 30.4859 69.4399 30.4859" fill="#111111"/>
<path fill-rule="evenodd" clip-rule="evenodd" d="M69.4389 12.4145H68.6639C67.6687 12.4145 66.8616 11.608 66.8616 10.6128V9.83879C66.8616 8.84412 67.6687 8.03757 68.6639 8.03757H69.4389C70.4342 8.03757 71.2412 8.84412 71.2412 9.83879V10.6128C71.2412 11.608 70.4342 12.4145 69.4389 12.4145" fill="#111111"/>
<path fill-rule="evenodd" clip-rule="evenodd" d="M58.0975 30.4825H57.3215C56.3263 30.4825 55.5192 29.6764 55.5192 28.6813V20.8835C55.5192 16.9398 58.7188 13.7421 62.6654 13.7421H62.9738C63.9691 13.7421 64.7761 14.5481 64.7761 15.5433V16.3183C64.7761 17.3135 63.9691 18.1196 62.9738 18.1196H62.6654C61.1379 18.1196 59.8998 19.3574 59.8998 20.8835V28.6813C59.8998 29.6764 59.0928 30.4825 58.0975 30.4825" fill="#111111"/>
<path fill-rule="evenodd" clip-rule="evenodd" d="M41.0062 20.6985C41.0903 19.2495 42.3014 18.0952 43.7723 18.0952H46.2454C47.7709 18.0952 49.0115 19.335 49.0115 20.8596V23.3318C49.0115 24.8558 47.7709 26.0956 46.2454 26.0956H43.7723C42.2473 26.0956 41.0062 24.8558 41.0062 23.3318V20.6985ZM46.2454 13.7177H43.7723C42.795 13.7177 41.8633 13.9149 41.0147 14.2711V9.87362C41.0147 8.87894 40.2077 8.07289 39.2124 8.07289H38.4364C37.4411 8.07289 36.6261 8.87894 36.6261 9.87362V23.3318C36.6261 27.2699 39.8317 30.4736 43.7723 30.4736H46.2454C50.186 30.4736 53.3916 27.2699 53.3916 23.3318V20.8596C53.3916 16.9214 50.186 13.7177 46.2454 13.7177V13.7177Z" fill="#111111"/>
<path d="M161.636 15.6752C161.636 17.3452 160.386 18.6652 158.786 18.6652C157.186 18.6652 155.906 17.3352 155.906 15.6752C155.906 14.0152 157.176 12.6652 158.786 12.6652C160.396 12.6652 161.636 13.9852 161.636 15.6752ZM161.016 15.6652C161.016 14.2952 160.046 13.2752 158.786 13.2752C157.526 13.2752 156.546 14.3052 156.546 15.6652C156.546 17.0252 157.506 18.0652 158.786 18.0652C160.066 18.0652 161.016 17.0452 161.016 15.6652ZM159.416 16.0152L160.176 17.1952H159.436L158.756 16.1652H158.366V17.1952H157.696V14.1552H158.786C159.436 14.1552 159.886 14.5452 159.886 15.1652C159.886 15.5652 159.706 15.8552 159.406 16.0252L159.416 16.0152ZM158.376 15.5652H158.796C159.046 15.5652 159.206 15.3952 159.206 15.1652C159.206 14.9152 159.036 14.7552 158.796 14.7552H158.376V15.5652Z" fill="#111111"/>
<defs>
<linearGradient id="paint0_linear_502_2336" x1="-0.0178921" y1="-0.159085" x2="-0.0178921" y2="35.9353" gradientUnits="userSpaceOnUse">
<stop stop-color="#FEDD57"/>
<stop offset="1" stop-color="#FEBD3A"/>
</linearGradient>
<linearGradient id="paint1_linear_502_2336" x1="15.61" y1="10.9969" x2="15.61" y2="31.6762" gradientUnits="userSpaceOnUse">
<stop stop-color="#FCEA98"/>
<stop offset="1" stop-color="#FFC553"/>
</linearGradient>
<linearGradient id="paint2_linear_502_2336" x1="3.67387" y1="10.9968" x2="3.67387" y2="31.6762" gradientUnits="userSpaceOnUse">
<stop stop-color="#FEDD57"/>
<stop offset="1" stop-color="#FEBD3A"/>
</linearGradient>
</defs>
</svg>
